<?xml version="1.0" encoding="utf-8"?>
<!-- Generator: Adobe Illustrator 18.0.0, SVG Export Plug-In . SVG Version: 6.00 Build 0)  -->
<!DOCTYPE svg PUBLIC "-//W3C//DTD SVG 1.1 Tiny//EN" "http://www.w3.org/Graphics/SVG/1.1/DTD/svg11-tiny.dtd">
<svg version="1.1" baseProfile="tiny" xmlns="http://www.w3.org/2000/svg" xmlns:xlink="http://www.w3.org/1999/xlink" x="0px"
	 y="0px" width="16px" height="16px" viewBox="0 0 16 16" xml:space="preserve">
<g id="Layer_1" display="none">
	<g display="inline">
		<path fill="#1572B6" d="M6.016,1.414c-0.16,0-0.288,0.04-0.384,0.12C5.536,1.614,5.459,1.718,5.4,1.846
			c-0.059,0.128-0.099,0.275-0.12,0.44C5.259,2.451,5.248,2.62,5.248,2.79v2.928c0,0.374-0.056,0.691-0.168,0.952
			C4.969,6.932,4.838,7.147,4.688,7.318C4.539,7.489,4.387,7.617,4.232,7.702c-0.155,0.086-0.28,0.139-0.376,0.16V7.91
			C3.952,7.92,4.077,7.963,4.232,8.038s0.307,0.194,0.456,0.36s0.28,0.381,0.392,0.648s0.168,0.603,0.168,1.008v2.912
			c0,0.16,0.011,0.322,0.032,0.488c0.021,0.165,0.061,0.314,0.12,0.447c0.059,0.134,0.136,0.24,0.232,0.32
			c0.096,0.08,0.224,0.12,0.384,0.12h0.8v0.96h-1.12c-0.203,0-0.406-0.046-0.608-0.136c-0.203-0.091-0.387-0.225-0.552-0.4
			c-0.166-0.176-0.302-0.395-0.408-0.656c-0.106-0.261-0.16-0.562-0.16-0.903V10.31c0-0.288-0.038-0.549-0.112-0.784
			C3.781,9.291,3.683,9.094,3.56,8.934c-0.123-0.16-0.264-0.283-0.424-0.368C2.976,8.48,2.811,8.438,2.64,8.438V7.35
			c0.17,0,0.336-0.045,0.496-0.136c0.16-0.09,0.301-0.218,0.424-0.384s0.221-0.365,0.296-0.6c0.075-0.234,0.112-0.491,0.112-0.768
			V2.55c0-0.341,0.053-0.643,0.16-0.904s0.243-0.48,0.408-0.656c0.165-0.176,0.349-0.309,0.552-0.4
			C5.291,0.5,5.493,0.454,5.697,0.454h1.12v0.96H6.016z"/>
		<path fill="#1572B6" d="M9.984,14.342c0.16,0,0.288-0.04,0.385-0.12c0.096-0.08,0.173-0.184,0.231-0.312
			c0.059-0.128,0.099-0.274,0.12-0.439c0.021-0.166,0.032-0.334,0.032-0.504v-2.912c0-0.373,0.056-0.69,0.168-0.952
			c0.112-0.261,0.242-0.477,0.392-0.647c0.149-0.171,0.302-0.299,0.456-0.384c0.154-0.085,0.28-0.138,0.376-0.16V7.862
			c-0.096-0.01-0.222-0.053-0.376-0.128s-0.307-0.194-0.456-0.36s-0.279-0.381-0.392-0.648s-0.168-0.603-0.168-1.008V2.822
			c0-0.181-0.011-0.354-0.032-0.52c-0.021-0.165-0.062-0.314-0.12-0.448s-0.136-0.24-0.231-0.32c-0.097-0.08-0.225-0.12-0.385-0.12
			H9.184v-0.96h1.12c0.202,0,0.405,0.045,0.608,0.136c0.202,0.091,0.386,0.224,0.552,0.4c0.165,0.176,0.301,0.395,0.408,0.656
			c0.106,0.261,0.16,0.562,0.16,0.904v2.912c0,0.288,0.037,0.549,0.111,0.784c0.075,0.234,0.174,0.435,0.296,0.6
			c0.123,0.166,0.265,0.291,0.425,0.376C13.024,7.308,13.19,7.35,13.36,7.35v1.088c-0.17,0-0.336,0.045-0.495,0.136
			c-0.16,0.091-0.302,0.219-0.425,0.384c-0.122,0.165-0.221,0.362-0.296,0.592c-0.074,0.229-0.111,0.482-0.111,0.76v2.896
			c0,0.341-0.054,0.643-0.16,0.903c-0.107,0.262-0.243,0.48-0.408,0.656c-0.166,0.176-0.35,0.31-0.552,0.4
			c-0.203,0.09-0.406,0.136-0.608,0.136h-1.12v-0.96H9.984z"/>
	</g>
</g>
<g id="Layer_2">
	<g>
		<path fill="#1572B6" d="M6.463,13.942v1.055H5.994c-1.216,0-2.03-0.181-2.442-0.542c-0.413-0.361-0.619-1.082-0.619-2.161v-1.465
			c0-0.532-0.15-0.991-0.45-1.377C2.181,9.066,1.717,8.874,1.087,8.874H0.193V7.827h0.894c0.688,0,1.168-0.164,1.439-0.491
			c0.271-0.327,0.406-0.808,0.406-1.443V3.989c0-1.079,0.206-1.798,0.619-2.157c0.412-0.358,1.227-0.538,2.442-0.538h0.469v1.047
			H5.95c-0.684,0-1.129,0.106-1.337,0.319C4.405,2.872,4.302,3.325,4.302,4.018v1.963c0,0.859-0.168,1.437-0.505,1.732
			s-0.994,0.509-1.97,0.641c0.947,0.112,1.597,0.329,1.948,0.648c0.352,0.32,0.527,0.897,0.527,1.732v1.53
			c0,0.698,0.104,1.152,0.312,1.362s0.653,0.315,1.337,0.315H6.463z"/>
		<path fill="#1572B6" d="M10.051,13.942c0.683,0,1.129-0.105,1.336-0.315c0.208-0.21,0.312-0.664,0.312-1.362v-1.53
			c0-0.835,0.176-1.412,0.527-1.732c0.352-0.319,1.001-0.536,1.948-0.648c-0.977-0.132-1.633-0.345-1.971-0.641
			c-0.336-0.295-0.505-0.873-0.505-1.732V4.018c0-0.693-0.104-1.146-0.312-1.358c-0.207-0.213-0.653-0.319-1.336-0.319H9.537V1.293
			h0.469c1.217,0,2.03,0.18,2.443,0.538c0.412,0.359,0.619,1.078,0.619,2.157v1.904c0,0.635,0.135,1.116,0.406,1.443
			c0.271,0.327,0.75,0.491,1.439,0.491h0.893v1.047h-0.893c-0.631,0-1.096,0.192-1.396,0.578c-0.301,0.386-0.45,0.845-0.45,1.377
			v1.465c0,1.079-0.207,1.8-0.619,2.161c-0.413,0.361-1.227,0.542-2.443,0.542H9.537v-1.055H10.051z"/>
	</g>
</g>
</svg>
