<?xml version="1.0" encoding="utf-8"?>
<!-- Generator: Adobe Illustrator 19.2.1, SVG Export Plug-In . SVG Version: 6.00 Build 0)  -->
<svg version="1.1" id="Layer_1" xmlns="http://www.w3.org/2000/svg" xmlns:xlink="http://www.w3.org/1999/xlink" x="0px" y="0px"
	 width="111.322px" height="111.319px" viewBox="0 0 111.322 111.319" enable-background="new 0 0 111.322 111.319"
	 xml:space="preserve">
<g>
	<path fill="#F05133" d="M99.871,51.567L59.752,11.45c-2.31-2.311-6.057-2.311-8.369,0l-8.33,8.332L53.62,30.349
		c2.456-0.83,5.272-0.273,7.229,1.685c1.969,1.97,2.521,4.81,1.67,7.275l10.186,10.185c2.465-0.85,5.307-0.3,7.275,1.671
		c2.75,2.75,2.75,7.206,0,9.958c-2.752,2.751-7.208,2.751-9.961,0c-2.068-2.07-2.58-5.11-1.531-7.658l-9.5-9.499v24.997
		c0.67,0.332,1.303,0.774,1.861,1.331c2.75,2.749,2.75,7.206,0,9.96c-2.75,2.749-7.209,2.749-9.957,0c-2.75-2.754-2.75-7.21,0-9.96
		c0.68-0.679,1.467-1.193,2.307-1.537V43.528c-0.84-0.344-1.625-0.853-2.307-1.537c-2.083-2.082-2.584-5.14-1.516-7.698
		L38.959,23.874l-27.51,27.507c-2.311,2.313-2.311,6.06,0,8.371L51.571,99.87c2.31,2.311,6.056,2.311,8.369,0l39.932-39.932
		C102.183,57.627,102.183,53.878,99.871,51.567z"/>
</g>
</svg>
