<?xml version="1.0" encoding="utf-8"?>
<!-- Generator: Adobe Illustrator 19.2.1, SVG Export Plug-In . SVG Version: 6.00 Build 0)  -->
<svg version="1.1" xmlns="http://www.w3.org/2000/svg" xmlns:xlink="http://www.w3.org/1999/xlink" viewBox="0 0 20 20" enable-background="new 0 0 20 20" xml:space="preserve">
<path fill-rule="evenodd" clip-rule="evenodd" fill="#181616" d="M9.999,0.247C4.478,0.247,0,4.724,0,10.248
	c0,4.418,2.865,8.166,6.839,9.488c0.5,0.092,0.683-0.217,0.683-0.482c0-0.237-0.009-0.866-0.014-1.701
	c-2.782,0.604-3.369-1.34-3.369-1.34c-0.455-1.155-1.11-1.463-1.11-1.463c-0.908-0.62,0.069-0.608,0.069-0.608
	c1.004,0.071,1.532,1.031,1.532,1.031c0.892,1.528,2.34,1.087,2.91,0.831c0.091-0.646,0.349-1.087,0.635-1.337
	c-2.221-0.252-4.555-1.11-4.555-4.942c0-1.092,0.39-1.984,1.029-2.683c-0.103-0.253-0.446-1.27,0.098-2.646
	c0,0,0.84-0.269,2.75,1.025c0.798-0.222,1.653-0.333,2.504-0.337c0.849,0.004,1.705,0.115,2.504,0.337
	c1.909-1.294,2.747-1.025,2.747-1.025c0.546,1.377,0.202,2.393,0.1,2.646c0.641,0.699,1.028,1.592,1.028,2.683
	c0,3.842-2.338,4.687-4.566,4.935c0.359,0.309,0.679,0.919,0.679,1.852c0,1.337-0.012,2.415-0.012,2.743
	c0,0.267,0.18,0.579,0.688,0.481C17.137,18.41,20,14.664,20,10.248C20,4.724,15.522,0.247,9.999,0.247z"/>
</svg>
