<?xml version="1.0" encoding="utf-8"?>
<!-- Generator: Adobe Illustrator 18.0.0, SVG Export Plug-In . SVG Version: 6.00 Build 0)  -->
<!DOCTYPE svg PUBLIC "-//W3C//DTD SVG 1.1 Tiny//EN" "http://www.w3.org/Graphics/SVG/1.1/DTD/svg11-tiny.dtd">
<svg version="1.1" baseProfile="tiny" id="Layer_3" xmlns="http://www.w3.org/2000/svg" xmlns:xlink="http://www.w3.org/1999/xlink"
	 x="0px" y="0px" viewBox="0 0 576 324" xml:space="preserve">
<image width="554" height="292" xlink:href="849166BF57F49159.png"  transform="matrix(1 0 0 1 10.9999 16)">
</image>
<ellipse fill="#6181B6" cx="288" cy="162" rx="265.68" ry="134.641"/>
<g>
	<path fill="#FFFFFF" d="M341.818,205.517c0,0,13.18-67.824,13.18-67.825c2.973-15.309,0.5-26.729-7.35-33.943
		c-7.603-6.982-20.51-10.376-39.461-10.376h-22.822l6.532-33.606c0.246-1.267-0.087-2.577-0.907-3.572
		c-0.821-0.995-2.043-1.572-3.333-1.572h-31.5c-2.068,0-3.846,1.465-4.241,3.496l-13.995,72.006
		c-1.273-8.102-4.408-15.068-9.427-20.813c-9.239-10.576-23.855-15.938-43.441-15.938h-61.055c-2.068,0-3.846,1.465-4.24,3.496
		l-28.328,145.75c-0.246,1.267,0.086,2.577,0.907,3.572c0.82,0.995,2.043,1.572,3.334,1.572h31.75c2.068,0,3.846-1.466,4.24-3.496
		l6.852-35.254h23.634c12.404,0,22.82-1.343,30.957-3.993c8.318-2.705,15.972-7.292,22.721-13.607
		c5.451-5.01,9.957-10.618,13.424-16.668l-5.661,29.124c-0.246,1.267,0.086,2.577,0.907,3.572c0.821,0.995,2.043,1.572,3.333,1.572
		h31.5c2.068,0,3.846-1.466,4.241-3.496l15.547-80.004h21.614c9.21,0,11.906,1.834,12.639,2.623c0.667,0.719,2.052,3.254,0.5,11.245
		l-12.531,64.488c-0.246,1.266,0.087,2.576,0.907,3.572c0.821,0.995,2.043,1.572,3.333,1.572h32
		C339.645,209.013,341.423,207.547,341.818,205.517z M195.78,149.477c-1.979,10.167-5.707,17.419-11.083,21.559
		c-5.461,4.205-14.198,6.337-25.966,6.337H144.66l10.176-52.36h18.192c13.366,0,18.751,2.857,20.913,5.253
		C196.938,133.589,197.574,140.233,195.78,149.477z"/>
	<path fill="#FFFFFF" d="M476.524,109.312c-9.239-10.576-23.855-15.938-43.441-15.938h-61.055c-2.068,0-3.846,1.465-4.241,3.496
		l-28.328,145.75c-0.246,1.267,0.086,2.577,0.907,3.572c0.821,0.995,2.043,1.572,3.334,1.572h31.75c2.068,0,3.846-1.466,4.24-3.496
		l6.852-35.254h23.634c12.404,0,22.82-1.343,30.957-3.993c8.318-2.705,15.973-7.292,22.721-13.607
		c5.628-5.174,10.261-10.98,13.77-17.257c3.503-6.271,6.021-13.27,7.485-20.802C488.72,134.784,485.831,119.966,476.524,109.312z
		 M443.596,149.477c-1.978,10.167-5.707,17.419-11.082,21.559c-5.462,4.205-14.198,6.337-25.966,6.337h-14.072l10.176-52.36h18.193
		c13.366,0,18.75,2.857,20.913,5.253C444.754,133.589,445.389,140.233,443.596,149.477z"/>
</g>
<g>
	<path fill="#000004" d="M173.028,120.693c12.062,0,20.102,2.227,24.121,6.68c4.016,4.453,4.973,12.098,2.871,22.93
		c-2.195,11.281-6.422,19.332-12.688,24.156c-6.266,4.824-15.801,7.234-28.602,7.234h-19.312l11.855-61H173.028z M95.669,243.443
		h31.75l7.531-38.75h27.195c12,0,21.871-1.258,29.621-3.781c7.75-2.52,14.793-6.746,21.133-12.68
		c5.32-4.891,9.625-10.285,12.922-16.184c3.293-5.895,5.633-12.402,7.016-19.52c3.359-17.277,0.824-30.734-7.598-40.375
		c-8.422-9.641-21.82-14.461-40.188-14.461h-61.055L95.669,243.443z"/>
	<path fill="#000004" d="M256.155,58.943h31.5l-7.531,38.75h28.062c17.656,0,29.836,3.082,36.539,9.238
		c6.703,6.16,8.711,16.141,6.031,29.938l-13.18,67.824h-32l12.531-64.488c1.426-7.336,0.902-12.34-1.574-15.008
		c-2.477-2.668-7.746-4.004-15.805-4.004h-25.176l-16.227,83.5h-31.5L256.155,58.943z"/>
	<path fill="#000004" d="M420.844,120.693c12.062,0,20.102,2.227,24.121,6.68c4.016,4.453,4.973,12.098,2.871,22.93
		c-2.195,11.281-6.422,19.332-12.688,24.156c-6.266,4.824-15.801,7.234-28.602,7.234h-19.312l11.855-61H420.844z M343.485,243.443
		h31.75l7.531-38.75h27.195c12,0,21.871-1.258,29.621-3.781c7.75-2.52,14.793-6.746,21.133-12.68
		c5.32-4.891,9.625-10.285,12.922-16.184c3.293-5.895,5.633-12.402,7.016-19.52c3.359-17.277,0.824-30.734-7.598-40.375
		s-21.82-14.461-40.188-14.461h-61.055L343.485,243.443z"/>
</g>
</svg>
