<?xml version="1.0" encoding="utf-8"?>
<!-- Generator: Adobe Illustrator 19.1.0, SVG Export Plug-In . SVG Version: 6.00 Build 0)  -->
<svg version="1.1" id="Layer_1" xmlns="http://www.w3.org/2000/svg" xmlns:xlink="http://www.w3.org/1999/xlink" x="0px" y="0px"
	 viewBox="0 0 64 64" style="enable-background:new 0 0 64 64;" xml:space="preserve">
<style type="text/css">
	.st0{fill:#C1272D;}
	.st1{fill:#EFCCA3;}
	.st2{fill:#ED1C24;}
	.st3{fill:#CCAC8D;}
	.st4{fill:#FFFFFF;}
	.st5{fill:#FF931E;}
	.st6{fill:#FFB81E;}
	.st7{fill:#56332B;}
	.st8{fill:#442823;}
	.st9{fill:#7F4A41;}
	.st10{fill:#331712;}
	.st11{fill:#FFCC66;}
	.st12{fill:#CCCCCC;}
	.st13{fill:#B3B3B3;}
	.st14{fill:#989898;}
	.st15{fill:#323232;}
	.st16{fill:#1E1E1E;}
	.st17{fill:#4C4C4C;}
	.st18{fill:#E6E6E6;}
	.st19{fill:#606060;}
</style>
<g>
	<path class="st7" d="M-38.6,28.9c0,0,11.6,9.7,15,20.9s2,24.8,4.6,26.5c3.7,2.4,7.9-11.9,9.3-13.4c2.2-2.4,9.5-8.5,10-9.6
		c0.5-1.1-14.8-17.8-21.5-21.1C-29.3,28.4-39.3,28.1-38.6,28.9z"/>
</g>
<g>
	<path class="st1" d="M50.5,31.5c-0.1-1.8,0.4-3.5-0.4-4.9c-2-3.5-7-5.5-17-5.5V21c0,0-0.7,0-0.7,0s0.7,0,0.7,0v0.1
		c-11,0-15.7,2-17.7,5.5c-0.8,1.4-0.8,3-0.9,4.9c-0.1,1.5-0.8,3.1-0.5,4.7c0.3,2.2,0.5,4.4,0.8,6.4c0.3,1.7,2.7,3,3,4.6
		c0.6,4.3,4.4,6.3,15.4,6.3V54h-0.7h0.1H33v-0.5c10,0,14.2-2,14.8-6.3c0.2-1.6,2.2-2.9,2.5-4.6c0.3-2,0.4-4.2,0.7-6.4
		C51.3,34.5,50.5,32.9,50.5,31.5z"/>
	<path class="st3" d="M32.6,33.1c1.8,0,3,1.1,4.2,2.2c1.4,1.2,3.7,2,4.7,3.1c1,1,2.2,2.1,2.7,3.8c0.5,1.6,0.6,3.7,0.6,4.3
		c0,0.5,0.3,0.4,1.1,0c2-1,4.2-3.6,4.2-3.6c-0.3,1.7-2.4,3.2-2.6,4.8c-0.6,4.3-4.8,6.4-15.1,6.4h0h0H33"/>
	<path class="st3" d="M39,29.7c0.4,1.3,1.7,5.8-0.9,4.3c0,0,1.1,0.6,1.8,3c0.7,2.4,2.5,2.7,2.5,2.7s2.8,0.5,4.9-1.2
		c1.8-1.5,2.1-4.2,1.3-6.3c-0.7-2-2.1-2.7-4.1-3.1C42.6,28.6,38.6,28.2,39,29.7z"/>
	<g>
		<circle cx="44.1" cy="34.5" r="3.7"/>
		<circle class="st4" cx="43.1" cy="32.8" r="1"/>
	</g>
	<path class="st1" d="M38.4,34.3c0,0,3.3,2.3,5.2,4.5c1.8,2.3,1.8,2.7,1.8,2.7l-1.3,0.6c0,0-1.8-3.5-4.1-4.8s-2.6-2.4-2.6-2.4
		L38.4,34.3z"/>
	<path class="st3" d="M32.7,33.1c-1.8,0-3.3,1.1-4.5,2.2c-1.4,1.2-3.9,2-4.8,3.1c-1,1-2.3,2.1-2.8,3.8c-0.5,1.6-0.6,3.7-0.6,4.3
		c0,0.5,0.1,0.6-1.2,0c-2-0.9-4.2-3.6-4.2-3.6c0.3,1.7,2.4,3.2,2.6,4.8C17.8,51.9,22,54,32.3,54h0h0H33"/>
	<path class="st7" d="M42.3,40c-2-2.5-5.3-5-9.8-5h0h0c-4.5,0-7.7,2.5-9.8,5c-2.1,2.6-2,3.7-2,6.1c0,8.9,3.1,6.2,5.2,7.3
		c2.1,1,4.3,0.6,6.5,0.6h0h0c2.3,0,4.4,0.4,6.5-0.6c2.1-1.1,5.2,1.6,5.2-7.3C44.3,43.6,44.4,42.5,42.3,40z"/>
	<path class="st8" d="M32.3,37.5c0,0-0.3,4.1-0.9,4.9l1.1-0.3L32.3,37.5z"/>
	<path class="st8" d="M32.6,37.5c0,0,0.3,4.1,0.9,4.9l-1.1-0.3L32.6,37.5z"/>
	<path class="st7" d="M29.1,36.5c-0.4-1,1.1-2.6,3.5-2.6c2.4,0,3.9,1.6,3.5,2.6c-0.4,1-2,1.3-3.5,1.3C31,37.8,29.5,37.5,29.1,36.5z"
		/>
	<path d="M32.6,37.5c0-0.2,1.4-0.2,2.2-0.7c0,0-1.6,0.5-1.9,0.3c-0.3-0.2-0.4-0.7-0.4-0.7c0,0-0.1,0.5-0.4,0.7
		c-0.3,0.2-2.1-0.3-2.1-0.3s2.4,0.6,2.3,0.7c0,0.1,0,0.5,0,0.8c0,1.1,0,3.7,0.2,3.9c0.3,0.4,0.2-2.8,0.2-3.9
		C32.6,38,32.6,37.7,32.6,37.5z"/>
	<path class="st9" d="M32.6,43.2c0.7,0,2,0.5,3.1,1.3c-1.1-1.2-2.4-2.1-3.1-2.1c-0.8,0-2.4,0.9-3.5,2.3
		C30.3,43.7,31.8,43.2,32.6,43.2z"/>
	<path class="st8" d="M32.4,50.6c-1.6,0-3.2-0.5-4.6-0.9c-0.3-0.1-0.6,0.1-0.9,0c-2.6-0.8-4.8-2.3-6.1-4.1c0,0.1,0,0.3,0,0.4
		c0,8.9,3.1,6.2,5.2,7.3c2.1,1,4.3,0.6,6.5,0.6h0h0c2.3,0,4.4,0.4,6.5-0.6c2.1-1.1,5.2,1.6,5.2-7.3c0-0.3,0-0.6,0-0.9
		c-1.2,2-3.5,3.6-6.2,4.5c-0.3,0.1-0.8-0.1-1.1-0.1C35.4,50,34.1,50.6,32.4,50.6z"/>
	<path class="st8" d="M28.3,45.8c0,0-1.1,3.2-0.3,4.6l-1-0.4C27,49.9,27.8,46.8,28.3,45.8z"/>
	<path class="st8" d="M36.7,45.8c0,0,1.1,3.2,0.3,4.6l1-0.4C38,49.9,37.3,46.8,36.7,45.8z"/>
	<path class="st3" d="M25.7,29.7c-0.4,1.3-1.7,5.8,0.9,4.3c0,0-1.1,0.6-1.8,3c-0.7,2.4-2.5,2.7-2.5,2.7s-2.8,0.5-4.9-1.2
		c-1.8-1.5-2.1-4.2-1.3-6.3c0.7-2,2.1-2.7,4.1-3.1C22.1,28.6,26.1,28.2,25.7,29.7z"/>
	<path d="M32.5,42.4c1.1,0,4.7,2.4,4.7,5.5c0-0.1,0-0.1,0-0.2c0-3.1-2.9-5.6-4.7-5.6c-1.9,0-4.7,2.5-4.7,5.6c0,0.1,0,0.1,0,0.2
		C27.9,44.8,31.4,42.4,32.5,42.4z"/>
	<g>
		<ellipse transform="matrix(0.9683 -0.2497 0.2497 0.9683 -7.9113 9.4501)" class="st10" cx="33.3" cy="35.9" rx="0.3" ry="0.6"/>
		<ellipse transform="matrix(0.9551 0.2963 -0.2963 0.9551 12.0513 -7.7088)" class="st10" cx="31.5" cy="35.9" rx="0.3" ry="0.6"/>
	</g>
	<g>
		<circle cx="20.8" cy="34.5" r="3.7"/>
		<circle class="st4" cx="21.8" cy="32.8" r="1"/>
	</g>
	<g>
		<path class="st9" d="M33.6,34.5c0,0-1,0.4-1.2,0.5c-0.3,0-1.2-0.5-1.2-0.5c0,0,0.8,0,1.2,0C32.8,34.5,33.6,34.5,33.6,34.5z"/>
	</g>
	<path class="st1" d="M26.3,34.3c0,0-3.3,2.3-5.2,4.5c-1.8,2.3-1.8,2.7-1.8,2.7l1.3,0.6c0,0,1.8-3.5,4.1-4.8s2.6-2.4,2.6-2.4
		L26.3,34.3z"/>
	<path class="st3" d="M19,27.6c0,0-1.1,3.1-3.7,4.4C15.3,32,19.2,31.5,19,27.6z"/>
	<path class="st3" d="M45.5,27.6c0,0,1.1,3.1,3.7,4.4C49.2,32,45.3,31.5,45.5,27.6z"/>
	<path class="st3" d="M38.6,33.4c0,0-2.6-2.6-5.9-2.7l-0.1,0c0,0,0.3,0,0.2,0c0,0,0.2,0,0.2,0v0c-4,0.1-5.8,2.7-5.8,2.7
		c2.9-2,4.8-2,5.8-2v0c0,0,0,0,0,0c0,0,0,0,0,0v0C33,31.4,35.6,31.4,38.6,33.4z"/>
	<path class="st3" d="M35.6,27.9c0,0-1.4-1.8-3-1.8l-0.1,0c0,0,0.2,0,0.2,0c0,0,0.2,0,0.2,0v0c-2,0-2.9,1.8-2.9,1.8
		c1.5-1.4,2.9-1.3,2.9-1.3v0c0,0,0,0,0,0c0,0,0,0,0,0v0C33,26.6,34.2,26.5,35.6,27.9z"/>
	<path class="st3" d="M20.8,40.9c0,0-2,1-3.4,0.4l0,0c0,0-0.2,0-0.2,0c0,0-0.2,0-0.2,0v0c-1-0.7-1.7-2.9-1.7-2.9
		S16.7,42.1,20.8,40.9z"/>
	<path class="st3" d="M44,40.9c0,0,2,1,3.4,0.4l0,0c0,0-0.2,0-0.2,0c0,0-0.2,0-0.2,0v0c2-0.7,2.1-2.9,2.1-2.9S48,42.1,44,40.9z"/>
	<g>
		<path class="st3" d="M23.1,27.4c1.1-0.2,2.9-0.3,4.3,0.2c1.8,0.6,0.4,3,0.7,3.1c0.4,0.1,0.9-1.6,4.3-1.4c3.4,0.2,3.8,1.7,4.3,1.4
			c0.5-0.2-0.5-4.2,4.7-3.3c0,0-5.3-1.4-5.1,2.4c0,0-3.1-2.4-7.4-0.2C28.9,29.6,30,25.9,23.1,27.4z"/>
	</g>
	<path class="st3" d="M41.8,27.4c0.1,0,0.1,0,0.2,0C42,27.4,41.9,27.4,41.8,27.4z"/>
	<path class="st3" d="M41.8,27.4C41.8,27.4,41.8,27.4,41.8,27.4C41.8,27.4,41.8,27.4,41.8,27.4z"/>
	<path class="st3" d="M21.7,22.2c0,0-4.6,5.7-5.2,7.9c-0.7,2.2-1.2,11.4-1.8,12.7l-2.1-9l3.9-9.4L21.7,22.2z"/>
	<path class="st3" d="M43.1,22.2c0,0,4.6,5.7,5.2,7.9c0.7,2.2,1.2,11.4,1.8,12.7l2.1-9l-3.9-9.4L43.1,22.2z"/>
	<path class="st7" d="M42.8,22.2c0,0,4.9,4.1,6.3,8.8c1.4,4.7,0.8,10.5,1.9,11.2c1.6,1,3.3-5,3.9-5.6c0.9-1,4-3.6,4.2-4.1
		c0.2-0.5-6.2-7.5-9.1-8.9C46.8,22,42.6,21.8,42.8,22.2z"/>
	<path class="st8" d="M47,24.7c0,0,5.8,7.4,5.7,16.6l2.3-4.7C55,36.5,53,30.5,47,24.7z"/>
	<path class="st7" d="M21.7,22.2c0,0-4.9,4.1-6.3,8.8s-0.8,10.5-1.9,11.2c-1.6,1-3.3-5-3.9-5.6c-0.9-1-4-3.6-4.2-4.1
		c-0.2-0.5,6.2-7.5,9.1-8.9C17.7,22,21.9,21.8,21.7,22.2z"/>
	<path class="st8" d="M17.5,24.7c0,0-5.8,7.4-5.7,16.6l-2.3-4.7C9.5,36.5,11.5,30.5,17.5,24.7z"/>
	<path class="st3" d="M14.3,41.4c0,0,0.4,2.3,1.1,3c0.7,0.7,0.2-0.6,0.2-0.6s-0.7-0.4-0.6-3.3S14.3,41.4,14.3,41.4z"/>
	<path class="st3" d="M50.3,41.4c0,0-0.4,2.3-1.1,3c-0.7,0.7-0.2-0.6-0.2-0.6s0.7-0.4,0.6-3.3C49.5,37.7,50.3,41.4,50.3,41.4z"/>
	<g>
		<circle class="st8" cx="28.2" cy="39.7" r="0.3"/>
		<circle class="st8" cx="26.2" cy="41.8" r="0.3"/>
		<circle class="st8" cx="25.6" cy="39.7" r="0.3"/>
	</g>
	<g>
		<circle class="st8" cx="36.4" cy="39.7" r="0.3"/>
		<circle class="st8" cx="38.3" cy="41.8" r="0.3"/>
		<circle class="st8" cx="38.9" cy="39.7" r="0.3"/>
	</g>
</g>
</svg>
