<?xml version="1.0" encoding="utf-8"?>
<!-- Generator: Adobe Illustrator 19.2.1, SVG Export Plug-In . SVG Version: 6.00 Build 0)  -->
<svg version="1.1" id="Layer_1" xmlns="http://www.w3.org/2000/svg" xmlns:xlink="http://www.w3.org/1999/xlink" x="0px" y="0px"
	 width="436.7px" height="570.7px" viewBox="0 0 436.7 570.7" style="enable-background:new 0 0 436.7 570.7;" xml:space="preserve"
	>
<style type="text/css">
	.st0{fill:url(#XMLID_4_);}
	.st1{fill:url(#XMLID_5_);}
	.st2{fill:url(#XMLID_8_);}
	.st3{fill:url(#XMLID_9_);}
	.st4{fill:url(#XMLID_11_);}
	.st5{opacity:0.3;fill:url(#XMLID_16_);enable-background:new    ;}
</style>
<g id="XMLID_14_">
	
		<linearGradient id="XMLID_4_" gradientUnits="userSpaceOnUse" x1="160.1731" y1="51.8302" x2="314.1731" y2="15.8302" gradientTransform="matrix(1 0 0 -1 0 355.8)">
		<stop  offset="0" style="stop-color:#FF6533"/>
		<stop  offset="0.157" style="stop-color:#FF5633"/>
		<stop  offset="0.434" style="stop-color:#FF4333"/>
		<stop  offset="0.714" style="stop-color:#FF3733"/>
		<stop  offset="1" style="stop-color:#FF3333"/>
	</linearGradient>
	<path id="XMLID_15_" class="st0" d="M436.7,187.9c0-33.6-8.8-65.1-24.3-92.4c-41.1-42.3-130.5-52.1-152.7-0.2
		c-22.8,53.2,38.3,112.4,65,107.7c34-6-6-84-6-84c52,98,40,68-54,158s-190,279.9-204,287.9c-0.6,0.4-1.2,0.7-1.9,1h368.7
		c6.5,0,10.7-6.9,7.8-12.7l-96.4-190.8c-2.1-4.1-0.6-9.2,3.4-11.5C398.7,318.5,436.7,257.7,436.7,187.9z"/>
</g>
<g id="XMLID_2_">
	
		<linearGradient id="XMLID_5_" gradientUnits="userSpaceOnUse" x1="136.0715" y1="102.8736" x2="412.0725" y2="-111.1264" gradientTransform="matrix(1 0 0 -1 0 355.8)">
		<stop  offset="0" style="stop-color:#BF3338"/>
		<stop  offset="1" style="stop-color:#FF3333"/>
	</linearGradient>
	<path id="XMLID_10_" class="st1" d="M436.7,187.9c0-33.6-8.8-65.1-24.3-92.4c-41.1-42.3-130.5-52.1-152.7-0.2
		c-22.8,53.2,38.3,112.4,65,107.7c34-6-6-84-6-84c52,98,40,68-54,158s-190,279.9-204,287.9c-0.6,0.4-1.2,0.7-1.9,1h368.7
		c6.5,0,10.7-6.9,7.8-12.7l-96.4-190.8c-2.1-4.1-0.6-9.2,3.4-11.5C398.7,318.5,436.7,257.7,436.7,187.9z"/>
</g>
<linearGradient id="XMLID_8_" gradientUnits="userSpaceOnUse" x1="145.0948" y1="60.7443" x2="185.0948" y2="18.7443" gradientTransform="matrix(1 0 0 -1 0 355.8)">
	<stop  offset="0" style="stop-color:#FF6533"/>
	<stop  offset="0.157" style="stop-color:#FF5633"/>
	<stop  offset="0.434" style="stop-color:#FF4333"/>
	<stop  offset="0.714" style="stop-color:#FF3733"/>
	<stop  offset="1" style="stop-color:#FF3333"/>
</linearGradient>
<path id="XMLID_3_" class="st2" d="M60.7,564.9c14-8,110-198,204-288s106-60,54-158c0,0-199,279-271,417"/>
<g id="XMLID_7_">
	
		<linearGradient id="XMLID_9_" gradientUnits="userSpaceOnUse" x1="217.8264" y1="-11.5565" x2="205.8264" y2="160.4435" gradientTransform="matrix(1 0 0 -1 0 355.8)">
		<stop  offset="0" style="stop-color:#FF6533"/>
		<stop  offset="0.157" style="stop-color:#FF5633"/>
		<stop  offset="0.434" style="stop-color:#FF4333"/>
		<stop  offset="0.714" style="stop-color:#FF3733"/>
		<stop  offset="1" style="stop-color:#FF3333"/>
	</linearGradient>
	<path id="XMLID_12_" class="st3" d="M88.7,314.9c134.4-247.1,152-272,222-272c36.8,0,73.9,16.6,97.9,46.1C375.9,36.3,318,1,251.7,0
		H23.4c-4.8,0-8.7,3.9-8.7,8.7v460.2C28.3,433.8,51.4,383.6,88.7,314.9z"/>
</g>
<linearGradient id="XMLID_11_" gradientUnits="userSpaceOnUse" x1="165.8335" y1="63.691" x2="222.6514" y2="25.054" gradientTransform="matrix(1 0 0 -1 0 355.8)">
	<stop  offset="0" style="stop-color:#FBB040"/>
	<stop  offset="1" style="stop-color:#FB8840"/>
</linearGradient>
<path id="XMLID_6_" class="st4" d="M264.7,276.9c-94,90-190,280-204,288s-37.5,9-50-5c-13.3-14.9-34-39,78-245
	c134.4-247.1,152-272,222-272c36.8,0,73.9,16.6,97.9,46.1c1.3,2.1,2.6,4.3,3.9,6.5C371.4,53.2,282,43.4,259.8,95.3
	c-22.8,53.2,38.3,112.4,65,107.7c34-6-6-84-6-84C370.7,216.9,358.7,186.9,264.7,276.9z"/>
<linearGradient id="XMLID_16_" gradientUnits="userSpaceOnUse" x1="224.0485" y1="282.1414" x2="166.0485" y2="-355.8586" gradientTransform="matrix(1 0 0 -1 0 355.8)">
	<stop  offset="0" style="stop-color:#FFFFFF"/>
	<stop  offset="1" style="stop-color:#FFFFFF;stop-opacity:0"/>
</linearGradient>
<path id="XMLID_13_" class="st5" d="M99.7,325.9c134.4-247.1,152-272,222-272c30.3,0,60.8,11.3,84,31.7c-24-27.4-59.6-42.7-95-42.7
	c-70,0-87.6,24.9-222,272c-112,206-91.3,230.1-78,245c1.9,2.1,4.1,3.9,6.4,5.4C5.4,548.3,0.2,508.8,99.7,325.9z"/>
</svg>
