<svg xmlns="http://www.w3.org/2000/svg" height="800" width="1200" version="1.0" viewBox="-102.7524 -98.444 890.5208 590.664"><path d="M253.757 5.463c13.964-2.146 28.049-3.714 42.167-4.458 2.508-.597 5.102-.475 7.664-.567C323.62-.2 343.68-.172 363.702.73c36.14 2.556 72.097 8.56 106.96 18.568l-.148.196c-5.11 6.912-10.237 13.814-15.249 20.797-1.502.278-2.816-.672-4.154-1.15-26.45-10.915-54.606-17.251-82.945-20.68-46.613-4.773-94.334-.938-139.051 13.406-32.924 10.648-64.718 27.068-89.269 51.829-17.398 17.792-30.756 40.81-32.57 66.028-1.687 12.019 1.19 24.017 3.736 35.68L.596 204.869c-.267-19.483 4.817-38.758 12.908-56.383 16.093-34.317 44-61.735 75.094-82.728 21.025-14.117 43.752-25.633 67.358-34.766 31.449-12.294 64.399-20.695 97.8-25.53z"/><path d="M455.265 40.291c5.012-6.983 10.138-13.885 15.25-20.797 46.809 13.71 92.012 35.359 128.937 67.617 15.098 13.52 28.754 28.815 39.242 46.217 12.42 20.48 20.29 43.932 21.132 67.959-36.714-6.417-73.417-12.888-110.125-19.327 4.518-14.37 4.556-30.014 1.463-44.678-5.734-25.343-21.981-47.102-41.58-63.619-16.336-13.747-34.975-24.763-54.722-32.826z" fill="#d72123"/><path d="M319.92 141.513c2.16-3.519 5.966-6.326 10.294-5.805 4.891.125 8.661 4.168 9.675 8.742l345.127 61.393-1.153 5.782-345.052-60.508c-2.752 4.79-9.138 7.263-14.154 4.435-3.478-1.52-4.665-5.242-6.234-8.364l-21.246-3.404.974-5.977zM0 222.222c20.283-.137 40.567-.026 60.85-.057l.08 3.006c14.739-3.21 29.886-4.574 44.96-3.742 10.975 1.005 21.053 5.708 30.868 10.378-11.065 6.843-22.324 13.434-33.122 20.674-12.033-9.292-28.387-9.3-42.42-5.235-.174 1.502-.34 3.008-.354 4.529.007 34.917.017 69.835-.004 104.754-20.275-.007-40.55.018-60.826-.013C-.01 311.75.054 266.986 0 222.222zm157.824.005c17.859-.15 35.72-.026 53.58-.063 26.468-.15 53.37 3.261 77.97 13.442 15.277 6.47 30.055 16.028 38.913 30.42 6.727 11.18 9.079 25.534 3.798 37.767-6.199 14.676-19.474 24.851-32.986 32.456-24.769 13.253-52.297 20.299-80.315 21.482l-.049 27.688-60.918 8.357zm216.554.025c69.7-.213 139.404-.026 209.106-.093 20.392.084 41.123.213 60.959 5.488 5.709 1.88 13.323 4.117 14.824 10.753.149 39.374.056 78.756.046 118.134-20.287-.005-40.573-.013-60.858.004-.005-39.07-.084-78.142.04-117.211-3.686-3.198-8.94-3.061-13.515-3.62-12.512-.325-25.033-.093-37.547-.128.002 40.319.045 80.638-.021 120.957-20.316-.019-40.63.006-60.944-.012-.06-32.296-.01-64.592-.026-96.887-.163-7.057.354-14.14-.307-21.175-5.716-2.403-11.977-2.873-18.106-2.903-10.882-.017-21.762.008-32.642-.01-.053 40.332.066 80.665-.06 120.998a15712.84 15712.84 0 00-57.384.008l-3.684-.015c.314-44.508.075-89.775.12-134.288z"/><path d="M218.827 236.988c15.6 1.565 29.703 10.38 40.36 21.536 9.19 9.665 15.685 23.152 13.441 36.736-2.453 13.608-11.922 24.663-22.57 32.892-9.247 6.789-19.706 12.649-31.234 14.185-.04-35.116-.045-70.233.002-105.35z" fill="#fff"/></svg>