<?xml version="1.0" encoding="utf-8"?>
<!-- Generator: Adobe Illustrator 18.0.0, SVG Export Plug-In . SVG Version: 6.00 Build 0)  -->
<!DOCTYPE svg PUBLIC "-//W3C//DTD SVG 1.1 Tiny//EN" "http://www.w3.org/Graphics/SVG/1.1/DTD/svg11-tiny.dtd">
<svg version="1.1" baseProfile="tiny" id="Layer_1" xmlns="http://www.w3.org/2000/svg" xmlns:xlink="http://www.w3.org/1999/xlink"
	 x="0px" y="0px" viewBox="0 0 580 580" xml:space="preserve">
<path fill="#CD6799" d="M487.531,320.693c-19.145,0.102-35.727,4.697-49.627,11.549c-5.084-10.147-10.229-19.072-11.093-25.709
	c-1.009-7.748-2.179-12.37-0.96-21.6c1.219-9.23,6.559-22.301,6.48-23.28c-0.078-0.979-1.197-5.681-12.24-5.76
	c-11.043-0.08-20.488,2.124-21.6,5.04c-1.112,2.916-3.238,9.478-4.56,16.32c-1.935,10.013-22.047,45.723-33.468,64.405
	c-3.734-7.291-6.91-13.721-7.572-18.805c-1.009-7.748-2.179-12.37-0.96-21.601c1.219-9.229,6.559-22.301,6.48-23.28
	c-0.078-0.979-1.197-5.68-12.24-5.76c-11.043-0.08-20.488,2.124-21.6,5.04c-1.112,2.916-2.299,9.729-4.56,16.32
	c-2.263,6.592-28.998,66.16-36,81.601c-3.568,7.867-6.673,14.186-8.865,18.504c-0.006-0.011-0.015-0.024-0.015-0.024
	s-0.134,0.287-0.367,0.773c-1.877,3.674-2.993,5.707-2.993,5.707s0.012,0.028,0.033,0.076c-1.488,2.698-3.083,5.204-3.873,5.204
	c-0.552,0-1.658-7.183,0.24-17.04c3.978-20.664,13.536-52.891,13.44-54c-0.049-0.569,1.777-6.185-6.24-9.12
	c-7.793-2.853-10.568,1.905-11.28,1.92c-0.688,0.015-1.2,1.681-1.2,1.681s8.682-36.24-16.56-36.24
	c-15.781,0-37.648,17.264-48.42,32.911c-6.797,3.708-21.345,11.649-36.779,20.129c-5.928,3.257-11.977,6.585-17.713,9.745
	c-0.39-0.432-0.778-0.864-1.18-1.293c-30.607-32.654-87.188-55.752-84.788-99.652c0.873-15.96,6.42-57.984,108.72-108.96
	c83.801-41.758,150.887-30.267,162.48-4.8c16.561,36.383-35.855,104.005-122.881,113.76c-33.158,3.717-50.617-9.134-54.96-13.92
	c-4.571-5.039-5.253-5.266-6.96-4.32c-2.781,1.54-1.018,5.989,0,8.64c2.599,6.763,13.261,18.754,31.44,24.72
	c15.992,5.248,54.921,8.13,102-10.08c52.73-20.396,93.904-77.135,81.81-124.56c-12.299-48.235-92.276-64.092-167.97-37.2
	c-45.048,16.004-93.816,41.123-128.88,73.92c-41.691,38.996-48.34,72.938-45.601,87.12c9.734,50.391,79.189,83.206,107.001,107.526
	c-1.373,0.757-2.66,1.468-3.831,2.114c-13.944,6.897-66.888,34.604-80.131,63.88c-15.022,33.207,2.392,57.032,13.92,60.24
	c35.719,9.939,72.372-7.939,92.07-37.319c19.694-29.374,17.289-67.622,8.25-85.081c-0.112-0.217-0.236-0.429-0.352-0.645
	c3.601-2.131,7.273-4.298,10.912-6.435c7.097-4.167,14.062-8.055,20.109-11.345c-3.382,9.268-5.86,20.379-7.149,36.424
	c-1.514,18.85,6.21,43.215,16.32,52.801c4.451,4.22,9.806,4.319,13.2,4.319c11.763,0,17.13-9.786,23.04-21.36
	c7.249-14.195,13.68-30.72,13.68-30.72s-8.072,44.64,13.92,44.64c8.013,0,16.075-10.391,19.664-15.689
	c0.01,0.058,0.015,0.089,0.015,0.089s0.208-0.345,0.617-1.037c0.832-1.273,1.303-2.082,1.303-2.082s0.016-0.084,0.042-0.23
	c3.221-5.593,10.365-18.344,21.079-39.37c13.842-27.167,27.119-61.2,27.119-61.2s1.235,8.32,5.28,22.08
	c2.38,8.096,7.436,17.045,11.425,25.627c-3.211,4.455-5.185,7.014-5.185,7.014s0.019,0.047,0.054,0.133
	c-2.566,3.406-5.443,7.082-8.453,10.666c-10.925,13.013-23.938,27.871-25.681,32.16c-2.053,5.053-1.567,8.77,2.399,11.76
	c2.898,2.185,8.058,2.523,13.44,2.16c9.817-0.66,16.726-3.095,20.134-4.578c5.314-1.879,11.5-4.834,17.307-9.102
	c10.718-7.879,17.182-19.15,16.561-34.08c-0.344-8.229-2.968-16.383-6.287-24.082c0.973-1.398,1.948-2.809,2.926-4.238
	c16.896-24.699,30-51.84,30-51.84s1.235,8.32,5.281,22.08c2.047,6.965,6.086,14.562,9.718,22.014
	c-15.886,12.908-25.738,27.906-29.159,37.746c-6.324,18.197-1.371,26.443,7.921,28.32c4.209,0.851,10.153-1.078,14.625-2.971
	c5.564-1.846,12.25-4.918,18.495-9.509c10.718-7.879,21.022-18.911,20.4-33.841c-0.284-6.797-2.127-13.543-4.628-20.023
	c13.466-5.609,30.901-8.729,53.107-6.136c47.641,5.564,56.986,35.31,55.2,47.76c-1.787,12.45-11.779,19.294-15.121,21.36
	c-3.34,2.066-4.359,2.783-4.079,4.32c0.406,2.234,1.951,2.148,4.8,1.668c3.922-0.662,25.017-10.127,25.92-33.108
	C564.998,352.477,537.045,320.43,487.531,320.693z M120.321,444.492c-15.78,17.215-37.826,23.721-47.28,18.24
	c-10.208-5.919-6.165-31.263,13.2-49.53c11.803-11.134,27.04-21.388,37.148-27.703c2.3-1.385,5.68-3.417,9.787-5.878
	c0.681-0.389,1.065-0.603,1.065-0.603l-0.015-0.025c0.793-0.475,1.605-0.961,2.444-1.463
	C143.716,403.532,136.884,426.424,120.321,444.492z M235.281,366.34c-5.496,13.398-16.999,47.678-24,45.841
	c-6.01-1.577-9.67-27.635-1.2-53.28c4.263-12.908,13.37-28.334,18.72-34.32c8.613-9.635,18.096-12.785,20.4-8.879
	C252.138,320.677,238.728,357.94,235.281,366.34z M330.26,411.658c-2.33,1.219-4.467,1.984-5.459,1.394
	c-0.728-0.435,0.961-2.04,0.961-2.04s11.881-12.78,16.559-18.6c2.722-3.385,5.878-7.401,9.317-11.895
	c0.027,0.449,0.043,0.895,0.043,1.334C351.647,397.164,336.856,407.502,330.26,411.658z M403.428,394.978
	c-1.738-1.236-1.449-5.234,4.267-17.687c2.244-4.89,7.364-13.12,16.265-20.986c1.031,3.235,1.66,6.337,1.643,9.226
	C425.486,384.797,411.74,391.992,403.428,394.978z"/>
</svg>
