<?xml version="1.0" encoding="utf-8"?>
<!-- Generator: Adobe Illustrator 18.0.0, SVG Export Plug-In . SVG Version: 6.00 Build 0)  -->
<!DOCTYPE svg PUBLIC "-//W3C//DTD SVG 1.1 Tiny//EN" "http://www.w3.org/Graphics/SVG/1.1/DTD/svg11-tiny.dtd">
<svg version="1.1" baseProfile="tiny" id="Layer_1" xmlns="http://www.w3.org/2000/svg" xmlns:xlink="http://www.w3.org/1999/xlink"
	 x="0px" y="0px" viewBox="0 0 350 350" xml:space="preserve">
<g>
	<path fill="#CC6699" d="M303.92,57.702c-9.303-36.486-69.801-48.48-127.059-28.139c-34.075,12.106-70.964,31.106-97.488,55.916
		c-31.537,29.497-36.566,55.172-34.493,65.9c7.312,37.854,59.18,62.597,80.501,80.955v0.111
		c-6.287,3.095-52.303,26.383-63.073,50.191c-11.363,25.117,1.809,43.141,10.529,45.566c27.019,7.518,54.745-6.004,69.645-28.228
		c14.378-21.448,13.182-49.145,6.933-62.921c8.619-2.274,18.669-3.293,31.44-1.802c36.037,4.209,43.107,26.711,41.756,36.127
		c-1.352,9.418-8.91,14.596-11.438,16.158c-2.527,1.564-3.299,2.105-3.086,3.267c0.307,1.69,1.477,1.627,3.631,1.262
		c2.967-0.5,18.924-7.66,19.605-25.043c0.869-22.07-20.281-46.758-57.73-46.113c-15.423,0.267-25.121,1.733-32.126,4.34
		c-0.518-0.59-1.045-1.177-1.59-1.758c-23.152-24.701-65.951-42.174-64.136-75.38c0.66-12.072,4.856-43.861,82.239-82.421
		c63.39-31.587,114.136-22.895,122.906-3.631c12.527,27.521-27.121,78.673-92.951,86.052c-25.081,2.811-38.288-6.909-41.573-10.529
		c-3.458-3.811-3.974-3.983-5.265-3.268c-2.103,1.165-0.77,4.53,0,6.536c1.966,5.115,10.031,14.186,23.782,18.699
		c12.097,3.97,41.544,6.15,77.157-7.624C281.922,136.495,313.068,93.576,303.92,57.702z M134.23,243.64
		c2.988,11.056,2.661,21.366-0.427,30.703c-0.343,1.037-0.72,2.062-1.13,3.076c-0.411,1.013-0.854,2.014-1.331,3.002
		c-2.381,4.939-5.576,9.564-9.488,13.832c-11.937,13.021-28.613,17.945-35.764,13.797c-7.722-4.477-3.854-22.836,9.985-37.465
		c14.888-15.738,36.309-25.857,36.309-25.857l-0.032-0.065C132.967,244.331,133.594,243.989,134.23,243.64z"/>
</g>
</svg>
