<?xml version="1.0" encoding="utf-8"?>
<!-- Generator: Adobe Illustrator 18.0.0, SVG Export Plug-In . SVG Version: 6.00 Build 0)  -->
<!DOCTYPE svg PUBLIC "-//W3C//DTD SVG 1.1 Tiny//EN" "http://www.w3.org/Graphics/SVG/1.1/DTD/svg11-tiny.dtd">
<svg version="1.1" baseProfile="tiny" xmlns="http://www.w3.org/2000/svg" xmlns:xlink="http://www.w3.org/1999/xlink" x="0px"
	 y="0px" viewBox="0 0 16 16" xml:space="preserve">
<g id="Layer_1" display="none">
	<g display="inline">
		<path fill="#1572B6" d="M6.016,1.414c-0.16,0-0.288,0.04-0.384,0.12C5.536,1.614,5.459,1.718,5.4,1.846
			c-0.059,0.128-0.099,0.275-0.12,0.44C5.259,2.451,5.248,2.62,5.248,2.79v2.928c0,0.374-0.056,0.691-0.168,0.952
			C4.969,6.932,4.838,7.147,4.688,7.318C4.539,7.489,4.387,7.617,4.232,7.702c-0.155,0.086-0.28,0.139-0.376,0.16V7.91
			C3.952,7.92,4.077,7.963,4.232,8.038s0.307,0.194,0.456,0.36s0.28,0.381,0.392,0.648s0.168,0.603,0.168,1.008v2.912
			c0,0.16,0.011,0.322,0.032,0.488c0.021,0.165,0.061,0.314,0.12,0.447c0.059,0.134,0.136,0.24,0.232,0.32
			c0.096,0.08,0.224,0.12,0.384,0.12h0.8v0.96h-1.12c-0.203,0-0.406-0.046-0.608-0.136c-0.203-0.091-0.387-0.225-0.552-0.4
			c-0.166-0.176-0.302-0.395-0.408-0.656c-0.106-0.261-0.16-0.562-0.16-0.903V10.31c0-0.288-0.038-0.549-0.112-0.784
			C3.781,9.291,3.683,9.094,3.56,8.934c-0.123-0.16-0.264-0.283-0.424-0.368C2.976,8.48,2.811,8.438,2.64,8.438V7.35
			c0.17,0,0.336-0.045,0.496-0.136c0.16-0.09,0.301-0.218,0.424-0.384s0.221-0.365,0.296-0.6c0.075-0.234,0.112-0.491,0.112-0.768
			V2.55c0-0.341,0.053-0.643,0.16-0.904s0.243-0.48,0.408-0.656c0.165-0.176,0.349-0.309,0.552-0.4
			C5.291,0.5,5.493,0.454,5.697,0.454h1.12v0.96H6.016z"/>
		<path fill="#1572B6" d="M9.984,14.342c0.16,0,0.288-0.04,0.385-0.12c0.096-0.08,0.173-0.184,0.231-0.312
			c0.059-0.128,0.099-0.274,0.12-0.439c0.021-0.166,0.032-0.334,0.032-0.504v-2.912c0-0.373,0.056-0.69,0.168-0.952
			c0.112-0.261,0.242-0.477,0.392-0.647c0.149-0.171,0.302-0.299,0.456-0.384c0.154-0.085,0.28-0.138,0.376-0.16V7.862
			c-0.096-0.01-0.222-0.053-0.376-0.128s-0.307-0.194-0.456-0.36s-0.279-0.381-0.392-0.648s-0.168-0.603-0.168-1.008V2.822
			c0-0.181-0.011-0.354-0.032-0.52c-0.021-0.165-0.062-0.314-0.12-0.448s-0.136-0.24-0.231-0.32c-0.097-0.08-0.225-0.12-0.385-0.12
			H9.184v-0.96h1.12c0.202,0,0.405,0.045,0.608,0.136c0.202,0.091,0.386,0.224,0.552,0.4c0.165,0.176,0.301,0.395,0.408,0.656
			c0.106,0.261,0.16,0.562,0.16,0.904v2.912c0,0.288,0.037,0.549,0.111,0.784c0.075,0.234,0.174,0.435,0.296,0.6
			c0.123,0.166,0.265,0.291,0.425,0.376C13.024,7.308,13.19,7.35,13.36,7.35v1.088c-0.17,0-0.336,0.045-0.495,0.136
			c-0.16,0.091-0.302,0.219-0.425,0.384c-0.122,0.165-0.221,0.362-0.296,0.592c-0.074,0.229-0.111,0.482-0.111,0.76v2.896
			c0,0.341-0.054,0.643-0.16,0.903c-0.107,0.262-0.243,0.48-0.408,0.656c-0.166,0.176-0.35,0.31-0.552,0.4
			c-0.203,0.09-0.406,0.136-0.608,0.136h-1.12v-0.96H9.984z"/>
	</g>
</g>
<g id="Layer_2">
	<g>
		<path fill="#E67E22" d="M6.441,13.88v1.07H5.965c-1.233,0-2.059-0.183-2.477-0.55c-0.419-0.367-0.628-1.098-0.628-2.192v-1.486
			c0-0.54-0.153-1.005-0.457-1.397C2.098,8.934,1.626,8.739,0.987,8.739H0.081V7.677h0.906c0.698,0,1.185-0.166,1.46-0.498
			C2.722,6.847,2.86,6.359,2.86,5.715V3.784c0-1.095,0.209-1.824,0.628-2.188C3.906,1.232,4.732,1.05,5.965,1.05h0.475v1.062h-0.52
			c-0.693,0-1.145,0.107-1.356,0.323C4.353,2.651,4.248,3.11,4.248,3.814v1.991c0,0.872-0.17,1.458-0.512,1.757
			c-0.342,0.3-1.008,0.516-1.998,0.65c0.961,0.114,1.62,0.333,1.976,0.657c0.357,0.325,0.534,0.91,0.534,1.757v1.552
			c0,0.708,0.105,1.169,0.316,1.382c0.211,0.213,0.663,0.32,1.356,0.32H6.441z"/>
		<path fill="#E67E22" d="M10.08,13.88c0.692,0,1.145-0.107,1.355-0.32c0.211-0.213,0.316-0.674,0.316-1.382v-1.552
			c0-0.847,0.178-1.432,0.535-1.757c0.357-0.324,1.015-0.543,1.976-0.657c-0.991-0.134-1.656-0.35-1.999-0.65
			c-0.341-0.3-0.512-0.886-0.512-1.757V3.814c0-0.703-0.105-1.163-0.316-1.378c-0.21-0.216-0.663-0.323-1.355-0.323H9.559V1.05
			h0.475c1.234,0,2.059,0.182,2.478,0.546c0.418,0.365,0.628,1.094,0.628,2.188v1.932c0,0.644,0.137,1.132,0.412,1.464
			c0.274,0.332,0.761,0.498,1.46,0.498h0.905v1.062h-0.905c-0.64,0-1.111,0.195-1.416,0.586c-0.305,0.391-0.457,0.857-0.457,1.397
			v1.486c0,1.095-0.21,1.826-0.628,2.192c-0.419,0.367-1.244,0.55-2.478,0.55H9.559v-1.07H10.08z"/>
	</g>
</g>
</svg>
