<?xml version="1.0" encoding="utf-8"?>
<!-- Generator: Adobe Illustrator 19.2.1, SVG Export Plug-In . SVG Version: 6.00 Build 0)  -->
<svg version="1.1" xmlns="http://www.w3.org/2000/svg" xmlns:xlink="http://www.w3.org/1999/xlink" viewBox="0 0 58.03 60" enable-background="new 0 0 58.03 60" xml:space="preserve">
<path fill="#1563FF" d="M58.03,10.11V4.62l-13.19,7.67v4.64L34.29,39.69l-5.28,3.64V60l11.31-6.52
	C40.32,53.48,58.03,10.11,58.03,10.11z M29.01,31.46L21.1,12.99V7.77l-0.05-0.02l-7.86,4.54v4.64l10.55,23.76l5.27-2.61
	C29.01,38.08,29.01,31.46,29.01,31.46z"/>
<path fill="#104EB2" d="M50.12,0L36.94,7.72h-0.01v5.27l-7.92,18.47v6.17l-5.27,3.06L13.19,16.93v-4.65l7.92-4.55L7.91,0L0,4.62
	v5.66l17.81,43.25L29.01,60V43.75l5.28-3.06l-0.07-0.04l10.62-23.72v-4.65l13.19-7.66"/>
</svg>
